<mxfile host="app.diagrams.net" modified="2023-12-07T10:29:10.666Z" agent="Mozilla/5.0 (X11; Ubuntu; Linux x86_64; rv:109.0) Gecko/20100101 Firefox/117.0" etag="vqoJvj2YzaNP_GVHoqxO" version="22.1.7" type="github">
  <diagram name="Seite-1" id="2BcE_k6lhLLKLKwVMFn_">
    <mxGraphModel dx="908" dy="499" grid="1" gridSize="10" guides="1" tooltips="1" connect="1" arrows="1" fold="1" page="1" pageScale="1" pageWidth="1169" pageHeight="1654" math="0" shadow="0">
      <root>
        <mxCell id="0" />
        <mxCell id="1" parent="0" />
        <mxCell id="R6F_S-6RXZzncV3H0Mo8-8" value="" style="rounded=0;whiteSpace=wrap;html=1;" vertex="1" parent="1">
          <mxGeometry x="100" y="450" width="300" height="500" as="geometry" />
        </mxCell>
        <mxCell id="R6F_S-6RXZzncV3H0Mo8-12" value="" style="rounded=0;whiteSpace=wrap;html=1;" vertex="1" parent="1">
          <mxGeometry x="420" y="450" width="300" height="500" as="geometry" />
        </mxCell>
        <mxCell id="R6F_S-6RXZzncV3H0Mo8-22" value="Drucker" style="rounded=0;whiteSpace=wrap;html=1;" vertex="1" parent="1">
          <mxGeometry x="130" y="1030" width="50" height="30" as="geometry" />
        </mxCell>
        <mxCell id="R6F_S-6RXZzncV3H0Mo8-23" value="PC" style="rounded=0;whiteSpace=wrap;html=1;" vertex="1" parent="1">
          <mxGeometry x="220" y="1010" width="40" height="20" as="geometry" />
        </mxCell>
      </root>
    </mxGraphModel>
  </diagram>
</mxfile>
